<svg xmlns="http://www.w3.org/2000/svg" version="1.0" width="512.000000pt" height="512.000000pt" viewBox="0 0 512.000000 512.000000" preserveAspectRatio="xMidYMid meet">

<g transform="translate(0.000000,512.000000) scale(0.100000,-0.100000)" fill="#16a34a" stroke="none">
<path d="M2526 5084 c-14 -13 -16 -53 -16 -284 l0 -270 25 -16 c23 -15 27 -15 50 0 l25 16 0 270 c0 231 -2 271 -16 284 -8 9 -24 16 -34 16 -10 0 -26 -7 -34 -16z" fill="#16a34a"/>
<path d="M1370 4770 c-11 -11 -20 -27 -20 -35 0 -14 187 -345 246 -437 17 -26 32 -38 48 -38 27 0 56 29 56 55 0 26 -248 453 -270 465 -27 14 -38 12 -60 -10z" fill="#16a34a"/>
<path d="M3688 4780 c-22 -13 -268 -441 -268 -467 0 -11 9 -28 20 -38 43 -39 63 -17 201 222 71 123 129 230 129 238 0 18 -35 55 -52 55 -7 0 -20 -5 -30 -10z" fill="#16a34a"/>
<path d="M2380 4058 c-73 -26 -158 -83 -195 -133 -24 -30 -28 -32 -74 -27 -49 4 -51 4 -103 -49 -102 -102 -199 -274 -231 -409 -33 -136 -31 -342 3 -347 10 -2 53 55 120 155 129 192 132 194 216 103 118 -127 263 -192 433 -192 154 0 292 55 396 158 49 47 55 58 55 94 0 84 -46 138 -129 154 -20 4 -42 11 -48 17 -20 16 -15 63 7 83 19 17 27 18 78 7 116 -24 193 -112 200 -229 l4 -64 119 -129 c65 -71 121 -125 125 -119 13 22 6 225 -10 294 -37 156 -150 331 -285 440 -218 176 -501 256 -681 193z" fill="#16a34a"/>
<path d="M522 3928 c-18 -18 -15 -63 6 -80 29 -26 438 -258 454 -258 24 0 50 36 46 66 -3 24 -29 42 -223 155 -213 124 -258 142 -283 117z" fill="#16a34a"/>
<path d="M4315 3811 c-194 -113 -220 -131 -223 -155 -4 -30 22 -66 46 -66 16 0 425 232 455 258 20 17 23 62 5 80 -25 25 -70 7 -283 -117z" fill="#16a34a"/>
<path d="M1946 3115 c-76 -112 -101 -142 -116 -138 -10 3 -39 -4 -64 -16 -37 -16 -51 -29 -66 -63 -25 -54 -25 -62 0 -113 23 -47 64 -75 112 -75 34 0 35 -1 47 -57 42 -192 206 -384 403 -472 107 -48 183 -64 298 -64 198 -1 349 62 491 202 94 94 138 162 192 297 35 87 37 89 74 95 53 7 80 27 104 76 27 55 18 103 -28 149 -18 19 -40 34 -47 34 -8 0 -73 65 -146 145 -73 80 -134 145 -137 145 -3 0 -34 -25 -71 -55 -134 -111 -271 -159 -452 -159 -96 1 -128 5 -195 27 -90 30 -181 81 -254 144 l-48 42 -97 -144z" fill="#16a34a"/>
<path d="M620 3105 c-110 -31 -207 -108 -258 -202 -38 -72 -305 -685 -335 -768 -17 -49 -21 -83 -21 -185 0 -110 3 -134 26 -198 37 -101 82 -174 155 -248 149 -149 391 -270 649 -322 99 -21 293 -46 299 -40 2 2 11 55 20 118 9 63 25 148 36 189 52 193 187 397 342 516 36 28 66 53 66 57 1 4 -25 15 -56 24 -115 33 -254 0 -368 -87 l-64 -49 -21 34 c-46 76 -137 136 -227 151 -50 8 -148 -15 -210 -50 -24 -13 -43 -21 -43 -17 0 4 50 127 111 273 l112 267 41 -19 c23 -10 60 -19 84 -19 90 0 139 41 195 165 43 96 44 179 4 247 -41 70 -83 96 -215 135 -140 41 -242 50 -322 28z" fill="#16a34a"/>
<path d="M4193 3081 c-148 -42 -188 -66 -230 -139 -40 -68 -39 -151 4 -247 56 -124 105 -165 195 -165 24 0 61 9 84 19 l41 19 112 -267 c61 -146 111 -269 111 -273 0 -4 -19 4 -43 17 -62 35 -160 58 -210 50 -90 -15 -181 -75 -227 -150 l-21 -34 -64 49 c-114 87 -254 119 -368 86 -31 -9 -57 -20 -56 -24 0 -4 30 -29 66 -57 143 -110 267 -286 328 -469 21 -62 64 -294 65 -344 0 -11 15 -12 68 -7 325 33 589 126 796 282 191 143 285 337 273 558 -3 51 -14 116 -25 150 -26 76 -293 690 -334 768 -70 131 -222 218 -378 216 -32 0 -109 -16 -187 -38z" fill="#16a34a"/>
<path d="M2071 2064 c-123 -32 -280 -94 -360 -141 -35 -21 -99 -71 -142 -111 -121 -113 -196 -238 -239 -395 -15 -58 -190 -1326 -190 -1382 0 -13 29 -15 199 -15 110 0 202 3 204 8 3 4 21 133 42 287 21 157 44 290 52 302 18 31 67 31 87 1 13 -21 11 -53 -25 -303 -21 -154 -39 -283 -39 -287 0 -5 410 -8 910 -8 501 0 910 1 910 3 0 1 -18 130 -40 287 -36 259 -38 287 -24 308 21 32 74 27 90 -8 6 -14 29 -152 50 -307 l38 -283 193 0 c165 0 193 2 193 15 0 56 -175 1324 -190 1382 -63 232 -224 430 -439 538 -120 60 -404 147 -421 128 -5 -4 -10 -78 -12 -163 -3 -143 -6 -160 -30 -212 -37 -80 -105 -149 -181 -184 -53 -25 -75 -29 -147 -29 -72 0 -94 4 -147 29 -76 35 -144 104 -181 184 -24 52 -27 71 -32 217 -4 132 -8 160 -20 162 -8 1 -57 -9 -109 -23z" fill="#16a34a"/>
<path d="M2312 1914 c6 -133 20 -179 71 -232 51 -54 102 -76 177 -76 75 0 126 22 177 76 51 53 65 99 71 232 l5 119 -34 -6 c-126 -23 -161 -27 -219 -27 -58 0 -93 4 -219 27 l-34 6 5 -119z" fill="#16a34a"/>
</g>
</svg>