<svg xmlns="http://www.w3.org/2000/svg" version="1.0" width="512.000000pt" height="512.000000pt" viewBox="0 0 512.000000 512.000000" preserveAspectRatio="xMidYMid meet">

<g transform="translate(0.000000,512.000000) scale(0.100000,-0.100000)" fill="#16a34a" stroke="none">
<path d="M2491 5024 c-116 -31 -227 -117 -276 -215 l-25 -49 -219 0 c-206 0 -220 -1 -245 -21 -21 -16 -26 -29 -26 -64 l0 -44 -417 -3 c-412 -3 -419 -3 -460 -26 -66 -35 -110 -79 -140 -140 -27 -55 -28 -62 -31 -250 -3 -165 -1 -197 13 -218 21 -33 58 -46 92 -33 49 19 52 31 53 219 0 197 8 226 69 267 34 23 35 23 428 23 l394 0 -3 -67 -3 -68 -353 -5 -354 -5 -19 -24 c-16 -20 -19 -40 -19 -147 0 -133 8 -165 47 -183 37 -17 62 -13 88 14 22 22 25 32 25 105 l0 80 295 0 295 0 0 -44 c0 -36 5 -48 26 -65 27 -21 32 -21 881 -21 l854 0 24 25 c18 18 25 35 25 65 l0 40 295 0 295 0 0 -1815 0 -1815 -1495 0 -1495 0 0 180 c0 179 0 181 -25 205 -29 30 -74 32 -106 6 l-24 -19 0 -247 0 -247 24 -19 c23 -19 63 -19 1626 -19 l1603 0 26 31 26 31 0 1913 0 1913 -26 31 -26 31 -349 0 -349 0 0 70 0 70 393 0 c371 0 394 -1 424 -20 18 -10 40 -31 50 -47 17 -26 18 -117 18 -2049 l0 -2023 -21 -28 c-11 -15 -36 -36 -55 -45 -32 -17 -135 -18 -1720 -18 l-1686 0 -34 23 c-67 44 -69 57 -69 388 l0 296 -23 21 c-34 32 -89 30 -117 -5 -21 -26 -21 -34 -18 -342 l3 -316 28 -57 c30 -61 74 -105 140 -140 l42 -23 1735 0 1735 0 46 21 c91 42 150 122 169 227 7 34 9 767 8 2058 -3 1676 -6 2010 -17 2041 -25 66 -82 130 -146 163 l-59 30 -413 3 -413 3 0 40 c0 29 -7 47 -25 64 l-24 25 -220 0 -219 0 -30 53 c-35 61 -121 146 -180 176 -97 49 -218 63 -321 35z m249 -180 c65 -35 104 -82 132 -157 11 -32 30 -65 42 -72 16 -12 63 -15 228 -15 l208 0 0 -200 0 -200 -745 0 -745 0 0 200 0 200 200 0 c130 0 208 4 225 12 18 8 31 28 46 69 48 131 154 202 290 195 49 -2 79 -10 119 -32z" fill="#16a34a"/>
<path d="M2563 4746 c-37 -17 -53 -43 -53 -88 0 -44 22 -74 64 -88 41 -13 75 -2 105 36 29 37 27 77 -6 113 -34 37 -68 45 -110 27z" fill="#16a34a"/>
<path d="M2319 3921 c-23 -18 -24 -27 -27 -150 l-4 -131 -124 0 c-119 0 -126 -1 -149 -25 l-25 -24 0 -264 c0 -330 -13 -307 173 -307 l127 0 0 -126 c0 -125 0 -126 29 -155 l29 -29 256 0 255 0 28 24 c28 24 28 26 32 155 l3 131 128 0 c181 0 170 -20 170 309 -1 185 -4 260 -13 272 -24 32 -56 39 -171 39 l-116 0 0 109 c0 116 -11 166 -40 181 -11 6 -128 10 -278 10 -241 0 -262 -1 -283 -19z m441 -270 c0 -128 0 -130 26 -150 24 -19 40 -21 150 -21 l124 0 0 -150 0 -150 -109 0 c-116 0 -166 -11 -181 -40 -6 -10 -10 -75 -10 -144 l0 -126 -155 0 -155 0 0 128 c0 125 -1 129 -26 153 -24 22 -35 24 -150 28 l-124 3 0 149 0 149 125 0 c120 0 127 1 150 25 24 23 25 30 25 150 l0 125 155 0 155 0 0 -129z" fill="#16a34a"/>
<path d="M753 3893 c-61 -21 -136 -92 -164 -155 l-24 -53 -3 -1095 -3 -1096 132 -229 c72 -127 140 -239 150 -249 22 -24 83 -27 103 -5 8 7 73 116 145 240 l131 227 0 1099 c0 1251 6 1158 -84 1248 -66 66 -125 85 -250 84 -53 0 -108 -7 -133 -16z m273 -185 l34 -38 0 -1040 0 -1040 -170 0 -170 0 2 1033 c3 1134 -1 1064 64 1108 25 17 42 19 117 17 88 -3 89 -3 123 -40z m-26 -2284 c0 -9 -100 -184 -105 -184 -6 0 -105 171 -105 181 0 5 47 9 105 9 58 0 105 -3 105 -6z" fill="#16a34a"/>
<path d="M1440 2627 c-19 -12 -43 -38 -54 -57 -20 -33 -21 -50 -21 -347 0 -300 1 -313 21 -340 11 -15 36 -38 54 -50 32 -23 38 -23 344 -23 355 0 362 1 403 80 22 42 23 51 23 338 0 275 -1 299 -20 337 -13 26 -34 49 -59 63 -37 21 -49 22 -348 22 -305 0 -311 0 -343 -23z m610 -397 l0 -260 -265 0 -265 0 0 260 0 260 265 0 265 0 0 -260z" fill="#16a34a"/>
<path d="M1824 2330 c-36 -44 -69 -80 -73 -80 -4 0 -22 16 -41 35 -56 58 -132 41 -146 -32 -6 -31 -1 -39 76 -117 82 -84 108 -99 148 -85 20 7 183 197 209 243 18 31 16 60 -8 90 -16 20 -29 26 -59 26 -37 0 -44 -5 -106 -80z" fill="#16a34a"/>
<path d="M2501 2474 c-28 -35 -26 -67 3 -101 l24 -28 604 -3 c331 -2 618 0 636 3 70 13 97 88 49 133 l-23 22 -636 0 -637 0 -20 -26z" fill="#16a34a"/>
<path d="M2501 2084 c-28 -35 -26 -67 3 -101 l24 -28 604 -3 c331 -2 618 0 636 3 68 12 96 89 49 133 l-23 22 -636 0 -637 0 -20 -26z" fill="#16a34a"/>
<path d="M1436 1531 c-16 -11 -38 -34 -50 -53 -20 -32 -21 -45 -21 -343 0 -344 1 -349 67 -397 33 -23 34 -23 355 -23 309 0 323 1 349 21 15 11 37 33 48 48 20 26 21 42 24 332 3 285 2 307 -17 349 -12 27 -33 52 -53 65 -31 19 -49 20 -353 20 -298 0 -322 -1 -349 -19z m614 -401 l0 -260 -262 2 -263 3 -3 258 -2 257 265 0 265 0 0 -260z" fill="#16a34a"/>
<path d="M1895 1308 c-11 -5 -47 -43 -79 -84 l-59 -74 -38 35 c-62 56 -108 56 -145 0 -27 -41 -10 -75 75 -159 116 -112 124 -111 261 60 73 91 100 132 100 152 -1 31 -16 54 -47 70 -26 14 -41 14 -68 0z" fill="#16a34a"/>
<path d="M2525 1398 c-51 -29 -60 -84 -20 -123 l24 -25 629 0 c622 0 630 0 656 21 32 25 35 75 7 110 l-19 24 -629 2 c-462 2 -633 0 -648 -9z" fill="#16a34a"/>
<path d="M2525 1008 c-51 -29 -60 -84 -20 -123 l24 -25 629 0 c622 0 630 0 656 21 32 25 35 75 7 110 l-19 24 -629 2 c-462 2 -633 0 -648 -9z" fill="#16a34a"/>
</g>
</svg>