<svg xmlns="http://www.w3.org/2000/svg" version="1.0" width="512.000000pt" height="512.000000pt" viewBox="0 0 512.000000 512.000000" preserveAspectRatio="xMidYMid meet">

<g transform="translate(0.000000,512.000000) scale(0.100000,-0.100000)" fill="#16a34a" stroke="none">
<path d="M1358 4913 c-13 -14 -24 -90 -49 -346 -31 -315 -31 -328 -14 -347 24 -27 34 -26 116 16 39 19 72 34 74 32 1 -2 33 -75 70 -163 75 -175 87 -195 121 -195 35 0 50 23 57 87 30 304 50 616 41 631 -18 28 -50 25 -119 -11 l-65 -35 -42 92 c-96 207 -121 251 -149 254 -15 2 -32 -4 -41 -15z m122 -345 c23 -51 47 -96 53 -100 21 -14 59 -8 94 13 19 12 36 19 38 17 5 -5 -20 -296 -26 -303 -3 -2 -24 41 -48 96 -51 119 -66 128 -143 85 l-48 -27 0 23 c0 58 24 288 30 288 4 0 26 -42 50 -92z" fill="#16a34a"/>
<path d="M3812 4835 c-509 -121 -859 -262 -1172 -470 -222 -148 -348 -274 -497 -498 -106 -160 -181 -235 -354 -357 -180 -126 -243 -191 -302 -311 -64 -128 -88 -226 -94 -381 -4 -96 -1 -151 12 -225 101 -567 622 -1241 1505 -1948 279 -224 602 -455 634 -455 31 0 851 222 874 236 30 20 29 56 -8 199 -56 217 -225 604 -274 626 -29 13 -61 -1 -69 -30 -3 -13 23 -78 68 -173 40 -84 91 -203 113 -263 38 -103 87 -275 80 -279 -2 -1 -176 -48 -387 -105 l-384 -102 -70 48 c-360 247 -820 628 -1126 934 -757 755 -1020 1394 -774 1883 45 90 107 150 268 261 174 121 262 210 370 374 246 374 633 635 1225 826 106 34 416 116 485 128 30 5 38 -6 542 -692 l512 -696 -92 -93 c-277 -281 -570 -442 -913 -503 -97 -17 -183 -22 -464 -29 -369 -8 -405 -13 -497 -66 -58 -34 -123 -110 -123 -145 0 -24 13 -36 98 -92 132 -88 244 -180 383 -314 69 -67 124 -113 136 -113 30 0 57 35 49 63 -12 49 -338 343 -484 436 -58 37 -58 47 2 78 76 39 124 45 434 48 331 5 475 18 631 60 205 55 402 153 586 290 107 79 375 346 375 372 0 12 -31 63 -68 114 -203 280 -997 1357 -1015 1377 -26 29 -43 28 -215 -13z" fill="#16a34a"/>
<path d="M3579 4465 c-454 -139 -813 -335 -1030 -562 -85 -89 -159 -192 -159 -221 0 -24 31 -52 58 -52 15 0 34 18 63 61 183 270 583 518 1064 660 61 18 118 39 128 47 23 20 22 69 -2 82 -26 13 -33 13 -122 -15z" fill="#16a34a"/>
<path d="M386 4314 c-9 -8 -16 -25 -15 -37 0 -12 87 -173 192 -357 l193 -335 34 0 c34 0 37 3 80 87 25 49 49 88 54 88 5 0 93 -52 197 -116 124 -75 197 -114 211 -112 12 2 29 15 37 29 14 26 9 36 -186 370 -111 189 -208 348 -216 353 -34 22 -61 -1 -104 -88 l-42 -84 -192 109 c-105 60 -199 109 -209 109 -10 0 -26 -7 -34 -16z m329 -264 c55 -31 108 -59 117 -63 26 -9 63 26 87 84 13 28 26 47 31 43 4 -5 47 -76 95 -159 48 -82 97 -165 108 -184 14 -23 16 -31 6 -25 -209 128 -259 155 -279 149 -12 -4 -34 -34 -56 -77 -20 -39 -39 -67 -43 -62 -7 7 -47 79 -209 367 -5 11 13 1 143 -73z" fill="#16a34a"/>
<path d="M327 3423 c-23 -27 -22 -41 13 -115 16 -34 27 -64 22 -66 -4 -1 -81 -33 -172 -70 -142 -59 -166 -72 -174 -95 -20 -55 -2 -61 345 -113 180 -27 327 -44 342 -40 43 10 44 44 3 125 -26 51 -33 73 -24 76 362 134 352 130 362 158 20 56 2 61 -324 107 -162 22 -313 43 -335 46 -32 4 -44 2 -58 -13z m328 -132 l120 -17 -85 -32 c-120 -45 -135 -54 -138 -84 -2 -15 6 -45 18 -68 12 -23 19 -44 17 -47 -3 -2 -75 6 -160 19 -86 12 -151 26 -144 30 7 4 53 24 103 44 114 45 123 59 88 133 l-24 52 43 -6 c23 -4 96 -14 162 -24z" fill="#16a34a"/>
<path d="M1787 3122 c-8 -9 -27 -42 -41 -72 -88 -188 -72 -429 45 -696 95 -217 395 -644 452 -644 21 0 57 35 57 54 0 8 -30 51 -67 97 -157 195 -290 407 -357 571 -92 224 -102 438 -26 588 31 62 33 77 11 99 -26 26 -53 27 -74 3z" fill="#16a34a"/>
<path d="M3668 1888 c-38 -31 -33 -45 65 -175 57 -77 74 -93 96 -93 69 0 67 52 -5 149 -98 132 -119 148 -156 119z" fill="#16a34a"/>
</g>
</svg>