<svg xmlns="http://www.w3.org/2000/svg" version="1.0" width="512.000000pt" height="512.000000pt" viewBox="0 0 512.000000 512.000000" preserveAspectRatio="xMidYMid meet">

<g transform="translate(0.000000,512.000000) scale(0.100000,-0.100000)" fill="#16a34a" stroke="none">
<path d="M2301 4669 c-189 -95 -227 -339 -76 -490 l44 -44 -172 -75 c-95 -41 -233 -104 -307 -141 -107 -52 -142 -65 -168 -61 -29 4 -56 -13 -288 -188 -141 -105 -257 -190 -259 -188 -2 2 -8 29 -14 62 -30 163 -143 261 -301 260 -128 0 -230 -65 -282 -179 -34 -76 -32 -181 5 -257 35 -72 103 -133 172 -154 l53 -17 -44 -64 c-24 -35 -54 -96 -66 -136 -23 -72 -23 -75 -22 -677 0 -333 6 -717 12 -855 21 -422 42 -738 53 -773 13 -41 53 -88 90 -107 33 -17 125 -20 166 -4 26 9 25 7 -14 -33 -47 -48 -55 -84 -25 -111 17 -15 62 -17 448 -17 l429 0 1082 1082 1083 1083 182 -182 c107 -107 194 -184 209 -188 17 -4 33 0 48 12 20 16 39 103 178 788 140 697 154 772 141 795 -9 17 -24 26 -45 28 -43 4 -1522 -295 -1550 -314 -16 -10 -23 -24 -23 -46 0 -28 23 -55 185 -218 l185 -185 -170 -170 c-94 -93 -170 -167 -170 -164 0 4 12 32 26 64 34 74 42 163 21 236 -28 94 -67 140 -226 263 -81 63 -152 126 -159 141 -7 14 -12 40 -12 58 0 38 93 394 106 406 5 5 115 63 244 128 l235 120 40 -14 c82 -29 186 21 206 100 9 36 19 47 65 75 104 64 137 146 92 232 -26 49 -89 90 -139 90 -24 0 -336 -117 -692 -259 -70 -28 -129 -51 -131 -51 -2 0 -3 30 -3 68 0 92 -30 158 -99 221 -64 58 -124 81 -214 81 -55 0 -78 -6 -129 -31z m236 -125 c115 -86 97 -260 -32 -309 -91 -35 -187 3 -226 89 -40 89 -13 171 76 228 40 26 142 21 182 -8z m1051 -46 c23 -23 12 -37 -64 -84 -81 -51 -109 -82 -101 -114 9 -35 -25 -43 -77 -18 l-45 21 -88 -45 c-519 -267 -501 -257 -512 -291 -6 -18 -33 -120 -62 -227 -43 -163 -50 -205 -46 -255 8 -108 33 -140 222 -287 128 -100 149 -120 170 -170 31 -76 22 -112 -72 -300 -79 -155 -91 -173 -115 -176 -19 -2 -36 5 -53 22 -29 29 -30 23 49 209 50 119 55 146 29 170 -28 25 -321 177 -341 177 -51 0 -54 -13 -167 -650 -105 -592 -108 -606 -136 -635 -28 -29 -30 -29 -57 -15 -24 14 -27 22 -27 65 1 28 9 109 18 180 19 140 31 359 47 830 11 323 31 516 75 709 21 92 24 125 16 142 -21 47 -46 42 -323 -66 -310 -121 -295 -114 -331 -156 -21 -25 -37 -34 -58 -34 -83 0 -94 56 -24 118 118 104 717 371 1616 722 184 72 354 139 379 149 55 23 63 24 78 9z m805 -1439 c-69 -349 -128 -636 -130 -638 -2 -3 -77 68 -166 157 -136 135 -168 162 -193 162 -25 0 -170 -142 -1124 -1095 l-1095 -1095 -310 0 -310 0 1246 1248 c686 686 1249 1255 1253 1265 10 30 -9 55 -172 219 l-155 156 34 7 c19 4 306 61 639 129 333 67 606 121 608 120 1 0 -55 -286 -125 -635z m-3556 600 c109 -53 132 -193 44 -280 -87 -88 -227 -65 -280 44 -25 51 -27 94 -6 144 21 50 42 72 90 94 53 24 99 24 152 -2z m1248 -130 c-29 -157 -45 -333 -55 -624 -16 -455 -29 -701 -46 -820 -34 -251 -33 -276 25 -334 l39 -39 -185 -183 c-121 -122 -180 -174 -173 -156 6 18 10 193 10 491 0 539 2 525 -90 618 -71 71 -122 88 -265 88 -147 0 -142 -8 -126 218 19 263 8 235 161 420 131 159 134 162 173 162 50 0 100 24 133 64 21 25 65 46 218 107 105 41 192 75 194 73 2 -1 -4 -39 -13 -85z m-735 -43 c0 -7 9 -24 19 -38 l20 -25 -135 -164 c-74 -90 -137 -173 -139 -184 -8 -37 -35 -379 -35 -439 0 -72 32 -133 87 -167 32 -20 55 -24 168 -29 126 -5 133 -6 169 -34 67 -50 66 -45 66 -544 0 -335 -3 -451 -12 -460 -19 -19 -86 -15 -97 6 -9 16 -20 156 -41 514 -6 105 -14 166 -24 186 -22 42 -70 80 -118 93 -40 10 -45 8 -180 -57 -76 -38 -146 -76 -154 -85 -14 -15 -19 -115 -39 -668 -15 -413 -28 -657 -35 -670 -15 -28 -85 -30 -99 -2 -11 20 -33 327 -52 741 -7 140 -13 527 -13 860 l-1 605 23 56 c12 32 42 78 65 105 46 52 537 425 549 418 5 -3 8 -11 8 -18z m1263 -562 c39 -20 74 -38 76 -40 2 -2 -17 -55 -43 -117 -46 -112 -57 -167 -41 -218 13 -44 54 -86 100 -105 25 -11 45 -21 45 -24 0 -3 -85 -91 -190 -195 -104 -104 -190 -187 -190 -184 0 3 36 208 80 455 44 247 80 452 80 456 0 12 6 10 83 -28z m-1331 -894 c4 -19 14 -168 23 -330 12 -203 21 -306 31 -330 19 -45 51 -79 91 -96 38 -17 120 -18 160 -4 18 7 -87 -105 -282 -299 -170 -171 -311 -309 -313 -306 -2 2 1 13 8 24 7 13 18 242 31 633 11 337 23 623 25 635 3 17 28 35 92 68 104 53 124 54 134 5z" fill="#16a34a"/>
</g>
</svg>