<svg xmlns="http://www.w3.org/2000/svg" version="1.0" width="512.000000pt" height="512.000000pt" viewBox="0 0 512.000000 512.000000" preserveAspectRatio="xMidYMid meet">

<g transform="translate(0.000000,512.000000) scale(0.100000,-0.100000)" fill="#16a341" stroke="none">
<path d="M1265 5106 c-62 -27 -112 -102 -114 -168 l-1 -28 -250 0 c-266 0 -321 -6 -410 -48 -68 -32 -161 -119 -200 -187 -60 -104 -60 -106 -60 -948 0 -824 -1 -810 49 -837 25 -13 77 -13 101 0 45 24 45 15 50 845 6 884 0 816 78 898 67 69 107 77 392 77 l250 0 0 -37 c1 -81 61 -161 138 -183 25 -8 268 -10 778 -8 l740 3 41 27 c49 32 83 97 83 157 l0 42 268 -3 c252 -3 269 -4 308 -25 50 -27 97 -75 121 -122 17 -34 18 -93 21 -937 l2 -900 -28 -52 -28 -52 -35 36 c-87 93 -229 151 -387 161 -141 8 -182 -16 -182 -110 0 -54 41 -200 75 -267 l25 -50 -27 -5 c-292 -63 -528 -292 -638 -620 -65 -192 -92 -469 -66 -681 11 -90 49 -273 66 -317 7 -16 -40 -17 -897 -17 l-904 0 -53 27 c-55 27 -105 84 -128 146 -8 23 -12 206 -12 660 l-1 629 -34 34 c-46 46 -86 46 -132 0 l-34 -34 0 -629 c0 -525 2 -638 15 -686 42 -161 154 -281 306 -328 58 -18 106 -19 1010 -19 l949 0 17 -27 c143 -231 260 -346 442 -438 148 -74 180 -78 601 -83 470 -5 547 6 725 95 372 188 616 704 592 1248 -22 470 -215 824 -535 978 l-83 40 34 36 c84 87 160 241 203 408 35 137 39 184 21 220 -26 48 -60 57 -210 50 -161 -7 -260 -31 -379 -91 l-88 -44 -2 811 -3 812 -37 78 c-64 133 -189 231 -327 257 -29 5 -166 10 -302 10 l-249 0 0 33 c-1 53 -34 113 -81 144 l-43 28 -755 2 c-611 2 -762 0 -786 -11z m1465 -306 l0 -120 -690 0 -690 0 0 120 0 120 690 0 690 0 0 -120z m1590 -1924 c0 -2 -9 -35 -21 -72 -48 -157 -148 -301 -254 -369 -43 -28 -62 -33 -140 -38 -49 -4 -107 -12 -128 -18 -22 -6 -41 -8 -44 -5 -11 10 47 172 82 231 86 143 226 235 403 265 54 9 102 12 102 6z m-1020 -285 c75 -29 134 -81 169 -153 17 -34 30 -62 29 -63 -2 -2 -36 3 -76 10 -57 10 -81 19 -104 41 -32 31 -68 87 -93 147 -15 36 -15 37 5 37 11 0 43 -9 70 -19z m86 -401 c32 -6 98 -22 145 -36 l86 -25 88 26 c128 37 217 48 330 42 166 -9 281 -60 395 -176 119 -121 189 -261 230 -462 104 -504 -85 -1067 -425 -1266 -142 -84 -161 -87 -579 -91 -402 -4 -467 2 -583 53 -314 139 -523 550 -523 1027 0 415 171 755 437 869 108 46 267 62 399 39z" fill="#16a341"/>
<path d="M913 3915 c-62 -44 -44 -148 31 -173 30 -10 282 -12 1188 -10 l1150 3 29 33 c38 42 39 89 3 131 l-26 31 -1177 0 c-1031 0 -1179 -2 -1198 -15z" fill="#16a341"/>
<path d="M912 3385 c-38 -32 -46 -65 -28 -109 29 -70 -27 -66 1001 -66 990 0 978 -1 1004 48 21 39 13 91 -18 123 l-29 29 -950 0 -950 0 -30 -25z" fill="#16a341"/>
<path d="M909 2862 c-23 -21 -31 -37 -32 -64 -1 -42 24 -85 59 -98 15 -6 339 -10 821 -10 l795 0 34 34 c37 37 43 70 20 115 -8 15 -26 32 -41 39 -19 9 -227 12 -825 12 l-800 0 -31 -28z" fill="#16a341"/>
<path d="M281 2666 c-87 -48 -51 -186 49 -186 38 0 71 22 89 57 43 85 -53 176 -138 129z" fill="#16a341"/>
<path d="M1306 2395 c-239 -50 -437 -238 -502 -476 -23 -86 -23 -243 0 -328 51 -187 177 -339 351 -423 355 -170 778 10 901 385 24 71 28 99 28 202 0 106 -3 130 -28 200 -51 149 -136 260 -259 343 -139 92 -331 130 -491 97z m280 -214 c312 -110 403 -511 169 -745 -178 -179 -467 -177 -640 5 -200 209 -167 524 72 690 111 77 265 96 399 50z" fill="#16a341"/>
<path d="M1537 1939 c-35 -35 -88 -92 -119 -126 l-56 -62 -23 26 c-57 60 -124 70 -170 24 -32 -32 -38 -79 -16 -116 16 -27 147 -150 174 -164 28 -14 62 -14 89 2 17 10 97 95 272 289 34 39 42 55 42 87 0 55 -32 90 -88 98 -42 6 -44 4 -105 -58z" fill="#16a341"/>
</g>
</svg>