<svg xmlns="http://www.w3.org/2000/svg" viewBox="0 0 512 512" className="w-[32px] h-[32px] text-green-600">
  <g transform="translate(0,512) scale(0.1,-0.1)" fill="#16a34a" stroke="none">
    <path d="M550 4890 c-20 -20 -20 -33 -20 -2298 0 -2045 2 -2280 16 -2300 18 -26 56 -29 78 -6 14 14 16 233 16 2265 l0 2249 314 0 313 0 -42 -43 c-56 -55 -73 -109 -54 -166 10 -30 153 -203 534 -646 l520 -605 7 -83 c3 -45 6 -301 7 -568 l1 -485 -55 -620 c-30 -340 -57 -636 -60 -657 -8 -56 10 -111 49 -145 47 -41 245 -96 295 -82 97 28 110 56 118 272 3 95 9 184 13 197 3 14 14 -52 24 -155 23 -234 27 -252 70 -291 54 -50 88 -51 215 -8 135 46 172 78 178 152 2 26 -25 343 -60 703 l-64 655 33 540 c21 344 37 547 45 560 7 11 209 286 450 611 240 326 444 605 453 622 33 65 13 126 -64 195 l-52 47 326 0 326 0 0 -2279 0 -2280 22 -15 c30 -21 44 -20 68 4 20 20 20 33 20 2330 0 2297 0 2310 -20 2330 -20 20 -33 20 -2010 20 -1977 0 -1990 0 -2010 -20z m3033 -128 c-15 -21 -187 -244 -382 -495 l-354 -457 -231 1 -231 1 -435 486 c-239 267 -436 489 -438 494 -2 4 470 8 1048 8 l1052 0 -29 -38z" fill="#16a34a"/>
    <path d="M2480 4766 c-65 -19 -145 -61 -192 -104 -147 -132 -191 -356 -105 -533 168 -347 653 -348 824 -1 32 64 37 85 41 164 8 153 -43 279 -150 373 -111 98 -280 139 -418 101z" fill="#16a34a"/>
  </g>
</svg>