<svg xmlns="http://www.w3.org/2000/svg" version="1.0" width="512.000000pt" height="512.000000pt" viewBox="0 0 512.000000 512.000000" preserveAspectRatio="xMidYMid meet">

<g transform="translate(0.000000,512.000000) scale(0.100000,-0.100000)" fill="#16a34a" stroke="none">
<path d="M3318 4646 c-80 -81 -143 -92 -338 -57 -258 47 -371 56 -725 56 -366 0 -442 -7 -681 -60 -414 -93 -745 -295 -933 -568 -151 -221 -268 -535 -306 -820 -45 -345 10 -649 174 -967 156 -304 212 -432 266 -621 114 -397 109 -725 -15 -1015 -43 -101 -44 -128 -8 -161 19 -17 64 -18 869 -21 931 -3 911 -4 925 54 4 16 2 53 -5 84 -41 184 -36 284 18 338 26 26 50 32 367 90 186 35 359 72 384 83 49 22 101 67 130 114 25 40 70 222 70 282 0 57 -26 105 -71 132 -17 10 -108 47 -203 81 -94 34 -177 67 -184 73 -7 6 -12 22 -10 36 3 27 13 32 326 159 97 40 138 71 163 127 24 51 23 97 -1 215 -11 52 -20 105 -20 117 0 15 29 46 95 102 52 45 102 95 110 111 19 37 19 121 1 163 -8 18 -82 108 -165 202 l-151 169 0 141 c0 199 -35 384 -86 459 -11 16 -5 27 52 95 79 93 147 224 169 326 27 119 17 282 -24 406 -17 53 -39 103 -49 112 -10 10 -35 17 -55 17 -30 0 -44 -8 -89 -54z" fill="#16a34a"/>
<path d="M4425 2465 c-38 -37 -32 -69 29 -149 66 -86 128 -213 158 -321 31 -115 31 -345 -1 -460 -31 -113 -86 -226 -159 -324 -70 -94 -73 -116 -26 -158 48 -44 86 -28 159 67 239 311 281 769 104 1123 -40 79 -125 202 -157 228 -34 26 -78 24 -107 -6z" fill="#16a34a"/>
<path d="M4171 2244 c-31 -40 -26 -69 24 -139 152 -213 148 -481 -9 -694 -53 -72 -55 -99 -10 -138 52 -47 99 -22 175 94 88 136 131 321 110 482 -6 48 -23 122 -37 165 -27 80 -109 214 -147 241 -35 24 -82 19 -106 -11z" fill="#16a34a"/>
<path d="M3943 2050 c-51 -21 -56 -78 -11 -150 56 -90 55 -182 -5 -279 -42 -68 -42 -98 0 -131 55 -43 112 -10 165 98 31 63 33 72 33 177 0 104 -2 114 -32 176 -48 97 -96 132 -150 109z" fill="#16a34a"/>
</g>
</svg>